<svg width="484" height="206" viewBox="0 0 484 206" fill="none" xmlns="http://www.w3.org/2000/svg">
<path d="M8.31598 131.752C7.28165 131.752 6.47488 131.462 5.89566 130.883C5.35781 130.304 5.08888 129.497 5.08888 128.463V90.4201C5.08888 89.3444 5.35781 88.5377 5.89566 87.9998C6.47488 87.4206 7.28165 87.131 8.31598 87.131C9.3503 87.131 10.1364 87.4206 10.6742 87.9998C11.2535 88.5377 11.5431 89.3444 11.5431 90.4201V128.463C11.5431 129.497 11.2741 130.304 10.7363 130.883C10.1985 131.462 9.39168 131.752 8.31598 131.752ZM24.115 131.752C23.122 131.752 22.3566 131.483 21.8188 130.945C21.2809 130.366 21.012 129.58 21.012 128.587V103.763C21.012 102.729 21.2809 101.943 21.8188 101.405C22.3566 100.867 23.1013 100.598 24.0529 100.598C25.0459 100.598 25.7906 100.867 26.2871 101.405C26.8249 101.943 27.0938 102.729 27.0938 103.763V108.604L26.4112 107.487C27.3214 105.17 28.7488 103.432 30.6933 102.274C32.6378 101.074 34.872 100.474 37.3957 100.474C39.7954 100.474 41.7813 100.929 43.3534 101.839C44.967 102.708 46.1668 104.053 46.9529 105.873C47.739 107.652 48.132 109.907 48.132 112.637V128.587C48.132 129.58 47.8631 130.366 47.3252 130.945C46.7874 131.483 46.022 131.752 45.029 131.752C43.9947 131.752 43.2086 131.483 42.6708 130.945C42.1329 130.366 41.864 129.58 41.864 128.587V113.01C41.864 110.403 41.3468 108.5 40.3125 107.3C39.3196 106.101 37.7474 105.501 35.596 105.501C33.0722 105.501 31.045 106.287 29.5142 107.859C28.0247 109.431 27.28 111.541 27.28 114.189V128.587C27.28 130.697 26.225 131.752 24.115 131.752ZM70.1118 131.876C67.0088 131.876 64.3195 131.235 62.044 129.952C59.8099 128.628 58.0722 126.787 56.831 124.429C55.5898 122.029 54.9692 119.216 54.9692 115.989C54.9692 113.589 55.3209 111.438 56.0242 109.534C56.7276 107.59 57.7205 105.956 59.0031 104.632C60.327 103.308 61.9199 102.294 63.7817 101.591C65.6848 100.846 67.7949 100.474 70.1118 100.474C71.5598 100.474 73.0699 100.701 74.6421 101.156C76.2557 101.57 77.7451 102.274 79.1104 103.266C79.6482 103.597 79.9792 104.011 80.1033 104.508C80.2688 104.963 80.2895 105.439 80.1654 105.935C80.0827 106.432 79.8551 106.866 79.4827 107.238C79.1518 107.569 78.738 107.776 78.2416 107.859C77.7451 107.9 77.2072 107.755 76.628 107.424C75.6351 106.721 74.6214 106.225 73.5871 105.935C72.5528 105.604 71.5598 105.439 70.6082 105.439C69.1188 105.439 67.7949 105.687 66.6364 106.183C65.5194 106.638 64.5678 107.321 63.7817 108.231C62.9956 109.1 62.3957 110.196 61.982 111.52C61.6096 112.844 61.4234 114.354 61.4234 116.051C61.4234 119.443 62.2095 122.112 63.7817 124.056C65.3952 125.96 67.6708 126.911 70.6082 126.911C71.5598 126.911 72.5528 126.766 73.5871 126.477C74.6214 126.187 75.6351 125.691 76.628 124.987C77.2072 124.656 77.7451 124.532 78.2416 124.615C78.738 124.698 79.1311 124.925 79.4207 125.298C79.7517 125.629 79.9585 126.042 80.0413 126.539C80.1654 126.994 80.1447 127.47 79.9792 127.966C79.8137 128.463 79.4621 128.876 78.9242 129.207C77.6003 130.159 76.1522 130.842 74.58 131.255C73.0492 131.669 71.5598 131.876 70.1118 131.876ZM88.9032 131.752C87.8689 131.752 87.0828 131.483 86.5449 130.945C86.0071 130.366 85.7382 129.58 85.7382 128.587V103.763C85.7382 102.729 86.0071 101.943 86.5449 101.405C87.0828 100.867 87.8275 100.598 88.7791 100.598C89.772 100.598 90.5167 100.867 91.0132 101.405C91.5511 101.943 91.82 102.729 91.82 103.763V108.293H91.1994C91.8614 105.811 93.0819 103.928 94.8609 102.646C96.6399 101.363 98.9155 100.619 101.687 100.412C102.432 100.37 103.011 100.557 103.425 100.97C103.88 101.384 104.128 102.025 104.17 102.894C104.253 103.763 104.066 104.466 103.611 105.004C103.156 105.501 102.453 105.79 101.501 105.873L100.322 105.997C97.6329 106.245 95.5849 107.093 94.1782 108.542C92.7716 109.99 92.0682 111.975 92.0682 114.499V128.587C92.0682 129.58 91.7993 130.366 91.2615 130.945C90.765 131.483 89.9789 131.752 88.9032 131.752ZM122.677 131.876C119.367 131.876 116.512 131.255 114.112 130.014C111.754 128.732 109.913 126.932 108.589 124.615C107.307 122.257 106.665 119.464 106.665 116.237C106.665 113.093 107.307 110.341 108.589 107.983C109.872 105.625 111.63 103.784 113.864 102.46C116.098 101.136 118.643 100.474 121.498 100.474C123.608 100.474 125.49 100.825 127.145 101.529C128.8 102.191 130.207 103.184 131.365 104.508C132.565 105.79 133.454 107.362 134.034 109.224C134.654 111.086 134.964 113.175 134.964 115.492C134.964 116.196 134.758 116.733 134.344 117.106C133.93 117.437 133.31 117.602 132.482 117.602H111.63V113.755H130.744L129.689 114.623C129.689 112.555 129.379 110.796 128.759 109.348C128.179 107.9 127.29 106.804 126.09 106.059C124.931 105.273 123.483 104.88 121.746 104.88C119.801 104.88 118.146 105.335 116.781 106.245C115.457 107.156 114.443 108.417 113.74 110.031C113.037 111.645 112.685 113.527 112.685 115.678V116.051C112.685 119.692 113.533 122.443 115.23 124.305C116.967 126.125 119.47 127.035 122.739 127.035C123.98 127.035 125.283 126.87 126.648 126.539C128.055 126.208 129.379 125.649 130.62 124.863C131.324 124.449 131.944 124.263 132.482 124.305C133.061 124.346 133.516 124.532 133.847 124.863C134.22 125.194 134.447 125.608 134.53 126.104C134.613 126.601 134.53 127.118 134.282 127.656C134.034 128.152 133.599 128.607 132.979 129.021C131.572 129.973 129.938 130.697 128.076 131.193C126.214 131.648 124.414 131.876 122.677 131.876ZM153.341 131.876C150.693 131.876 148.355 131.255 146.328 130.014C144.342 128.732 142.791 126.911 141.674 124.553C140.557 122.153 139.998 119.361 139.998 116.175C139.998 112.906 140.557 110.114 141.674 107.797C142.791 105.48 144.342 103.68 146.328 102.398C148.355 101.115 150.693 100.474 153.341 100.474C155.989 100.474 158.264 101.136 160.167 102.46C162.112 103.742 163.415 105.48 164.077 107.673H163.395V90.296C163.395 89.2617 163.663 88.4756 164.201 87.9378C164.739 87.3999 165.505 87.131 166.497 87.131C167.49 87.131 168.256 87.3999 168.794 87.9378C169.373 88.4756 169.663 89.2617 169.663 90.296V128.587C169.663 129.58 169.394 130.366 168.856 130.945C168.318 131.483 167.553 131.752 166.56 131.752C165.567 131.752 164.801 131.483 164.263 130.945C163.726 130.366 163.457 129.58 163.457 128.587V123.126L164.139 124.491C163.477 126.725 162.174 128.525 160.229 129.89C158.326 131.214 156.03 131.876 153.341 131.876ZM154.954 127.035C156.651 127.035 158.14 126.622 159.423 125.794C160.705 124.967 161.698 123.746 162.402 122.133C163.146 120.519 163.519 118.533 163.519 116.175C163.519 112.617 162.733 109.928 161.16 108.107C159.588 106.287 157.52 105.376 154.954 105.376C153.217 105.376 151.707 105.79 150.424 106.618C149.142 107.404 148.128 108.604 147.383 110.217C146.68 111.831 146.328 113.817 146.328 116.175C146.328 119.692 147.114 122.381 148.686 124.243C150.259 126.104 152.348 127.035 154.954 127.035ZM181.567 131.69C180.574 131.69 179.808 131.4 179.271 130.821C178.733 130.2 178.464 129.352 178.464 128.276V104.073C178.464 102.998 178.733 102.17 179.271 101.591C179.808 101.012 180.574 100.722 181.567 100.722C182.56 100.722 183.325 101.012 183.863 101.591C184.442 102.17 184.732 102.998 184.732 104.073V128.276C184.732 129.352 184.463 130.2 183.925 130.821C183.387 131.4 182.601 131.69 181.567 131.69ZM181.567 94.2678C180.326 94.2678 179.353 93.9575 178.65 93.3369C177.988 92.7164 177.657 91.8475 177.657 90.7304C177.657 89.572 177.988 88.7032 178.65 88.1239C179.353 87.5034 180.326 87.1931 181.567 87.1931C182.808 87.1931 183.76 87.5034 184.422 88.1239C185.125 88.7032 185.477 89.572 185.477 90.7304C185.477 91.8475 185.125 92.7164 184.422 93.3369C183.76 93.9575 182.808 94.2678 181.567 94.2678ZM209.814 131.876C207.166 131.876 204.87 131.214 202.925 129.89C200.981 128.525 199.678 126.725 199.016 124.491L199.698 123.374V128.587C199.698 129.58 199.429 130.366 198.892 130.945C198.354 131.483 197.609 131.752 196.657 131.752C195.664 131.752 194.899 131.483 194.361 130.945C193.823 130.366 193.554 129.58 193.554 128.587V90.296C193.554 89.2617 193.823 88.4756 194.361 87.9378C194.899 87.3999 195.664 87.131 196.657 87.131C197.65 87.131 198.416 87.3999 198.954 87.9378C199.533 88.4756 199.822 89.2617 199.822 90.296V107.673H199.078C199.74 105.48 201.043 103.742 202.988 102.46C204.932 101.136 207.208 100.474 209.814 100.474C212.545 100.474 214.903 101.115 216.889 102.398C218.875 103.68 220.406 105.48 221.481 107.797C222.598 110.114 223.157 112.906 223.157 116.175C223.157 119.361 222.598 122.153 221.481 124.553C220.406 126.911 218.854 128.732 216.827 130.014C214.841 131.255 212.503 131.876 209.814 131.876ZM208.263 127.035C210 127.035 211.51 126.622 212.793 125.794C214.075 124.967 215.068 123.746 215.772 122.133C216.475 120.519 216.827 118.533 216.827 116.175C216.827 112.617 216.041 109.928 214.469 108.107C212.938 106.287 210.869 105.376 208.263 105.376C206.566 105.376 205.056 105.79 203.732 106.618C202.45 107.404 201.457 108.604 200.753 110.217C200.05 111.831 199.698 113.817 199.698 116.175C199.698 119.692 200.484 122.381 202.057 124.243C203.629 126.104 205.697 127.035 208.263 127.035ZM239.964 131.876C236.737 131.876 234.296 130.945 232.641 129.083C231.027 127.18 230.22 124.449 230.22 120.891V90.296C230.22 89.2617 230.489 88.4756 231.027 87.9378C231.565 87.3999 232.331 87.131 233.323 87.131C234.316 87.131 235.082 87.3999 235.62 87.9378C236.199 88.4756 236.489 89.2617 236.489 90.296V120.519C236.489 122.588 236.902 124.139 237.73 125.173C238.599 126.166 239.84 126.663 241.453 126.663C241.826 126.663 242.157 126.663 242.446 126.663C242.736 126.622 243.025 126.58 243.315 126.539C243.812 126.497 244.163 126.642 244.37 126.973C244.577 127.263 244.68 127.883 244.68 128.835C244.68 129.704 244.494 130.386 244.122 130.883C243.749 131.338 243.15 131.628 242.322 131.752C241.95 131.793 241.557 131.814 241.143 131.814C240.729 131.855 240.336 131.876 239.964 131.876ZM263.098 131.876C259.789 131.876 256.934 131.255 254.534 130.014C252.176 128.732 250.335 126.932 249.011 124.615C247.728 122.257 247.087 119.464 247.087 116.237C247.087 113.093 247.728 110.341 249.011 107.983C250.294 105.625 252.052 103.784 254.286 102.46C256.52 101.136 259.065 100.474 261.919 100.474C264.029 100.474 265.912 100.825 267.567 101.529C269.222 102.191 270.628 103.184 271.787 104.508C272.987 105.79 273.876 107.362 274.455 109.224C275.076 111.086 275.386 113.175 275.386 115.492C275.386 116.196 275.179 116.733 274.766 117.106C274.352 117.437 273.731 117.602 272.904 117.602H252.052V113.755H271.166L270.111 114.623C270.111 112.555 269.801 110.796 269.18 109.348C268.601 107.9 267.712 106.804 266.512 106.059C265.353 105.273 263.905 104.88 262.168 104.88C260.223 104.88 258.568 105.335 257.203 106.245C255.879 107.156 254.865 108.417 254.162 110.031C253.459 111.645 253.107 113.527 253.107 115.678V116.051C253.107 119.692 253.955 122.443 255.651 124.305C257.389 126.125 259.892 127.035 263.161 127.035C264.402 127.035 265.705 126.87 267.07 126.539C268.477 126.208 269.801 125.649 271.042 124.863C271.745 124.449 272.366 124.263 272.904 124.305C273.483 124.346 273.938 124.532 274.269 124.863C274.642 125.194 274.869 125.608 274.952 126.104C275.035 126.601 274.952 127.118 274.704 127.656C274.455 128.152 274.021 128.607 273.4 129.021C271.994 129.973 270.359 130.697 268.498 131.193C266.636 131.648 264.836 131.876 263.098 131.876ZM302.741 131.317C301.624 131.317 300.755 131.028 300.134 130.449C299.555 129.828 299.266 128.959 299.266 127.842V91.0407C299.266 89.9237 299.555 89.0755 300.134 88.4963C300.755 87.8757 301.624 87.5654 302.741 87.5654H314.718C321.917 87.5654 327.461 89.4479 331.35 93.2128C335.281 96.9364 337.246 102.336 337.246 109.41C337.246 112.927 336.75 116.051 335.757 118.781C334.764 121.512 333.295 123.808 331.35 125.67C329.447 127.49 327.11 128.897 324.338 129.89C321.566 130.842 318.359 131.317 314.718 131.317H302.741ZM305.72 125.918H314.346C317.077 125.918 319.435 125.587 321.421 124.925C323.448 124.222 325.144 123.188 326.51 121.822C327.875 120.457 328.889 118.74 329.551 116.671C330.213 114.603 330.544 112.182 330.544 109.41C330.544 103.908 329.178 99.7911 326.448 97.0605C323.758 94.3299 319.725 92.9646 314.346 92.9646H305.72V125.918ZM348.353 131.752C347.319 131.752 346.533 131.483 345.995 130.945C345.457 130.366 345.188 129.58 345.188 128.587V103.763C345.188 102.729 345.457 101.943 345.995 101.405C346.533 100.867 347.278 100.598 348.229 100.598C349.222 100.598 349.967 100.867 350.463 101.405C351.001 101.943 351.27 102.729 351.27 103.763V108.293H350.649C351.311 105.811 352.532 103.928 354.311 102.646C356.09 101.363 358.366 100.619 361.138 100.412C361.882 100.37 362.461 100.557 362.875 100.97C363.33 101.384 363.579 102.025 363.62 102.894C363.703 103.763 363.516 104.466 363.061 105.004C362.606 105.501 361.903 105.79 360.951 105.873L359.772 105.997C357.083 106.245 355.035 107.093 353.628 108.542C352.222 109.99 351.518 111.975 351.518 114.499V128.587C351.518 129.58 351.249 130.366 350.712 130.945C350.215 131.483 349.429 131.752 348.353 131.752ZM382.127 131.876C378.817 131.876 375.962 131.255 373.562 130.014C371.204 128.732 369.363 126.932 368.039 124.615C366.757 122.257 366.115 119.464 366.115 116.237C366.115 113.093 366.757 110.341 368.039 107.983C369.322 105.625 371.08 103.784 373.314 102.46C375.548 101.136 378.093 100.474 380.948 100.474C383.058 100.474 384.94 100.825 386.595 101.529C388.25 102.191 389.657 103.184 390.815 104.508C392.015 105.79 392.904 107.362 393.484 109.224C394.104 111.086 394.414 113.175 394.414 115.492C394.414 116.196 394.208 116.733 393.794 117.106C393.38 117.437 392.76 117.602 391.932 117.602H371.08V113.755H390.194L389.139 114.623C389.139 112.555 388.829 110.796 388.209 109.348C387.629 107.9 386.74 106.804 385.54 106.059C384.382 105.273 382.933 104.88 381.196 104.88C379.251 104.88 377.596 105.335 376.231 106.245C374.907 107.156 373.893 108.417 373.19 110.031C372.487 111.645 372.135 113.527 372.135 115.678V116.051C372.135 119.692 372.983 122.443 374.68 124.305C376.417 126.125 378.92 127.035 382.189 127.035C383.43 127.035 384.733 126.87 386.099 126.539C387.505 126.208 388.829 125.649 390.07 124.863C390.774 124.449 391.394 124.263 391.932 124.305C392.511 124.346 392.966 124.532 393.297 124.863C393.67 125.194 393.897 125.608 393.98 126.104C394.063 126.601 393.98 127.118 393.732 127.656C393.484 128.152 393.049 128.607 392.429 129.021C391.022 129.973 389.388 130.697 387.526 131.193C385.664 131.648 383.864 131.876 382.127 131.876ZM410.929 131.876C408.819 131.876 406.916 131.462 405.22 130.635C403.565 129.807 402.261 128.69 401.31 127.284C400.358 125.877 399.883 124.284 399.883 122.505C399.883 120.271 400.441 118.512 401.558 117.23C402.717 115.906 404.599 114.975 407.206 114.437C409.853 113.858 413.412 113.568 417.88 113.568H420.797V117.416H417.942C414.963 117.416 412.605 117.561 410.867 117.85C409.129 118.14 407.888 118.637 407.143 119.34C406.44 120.002 406.088 120.933 406.088 122.133C406.088 123.705 406.626 124.987 407.702 125.98C408.778 126.932 410.267 127.408 412.17 127.408C413.701 127.408 415.046 127.056 416.204 126.353C417.363 125.608 418.273 124.615 418.935 123.374C419.638 122.133 419.99 120.705 419.99 119.092V111.955C419.99 109.597 419.493 107.9 418.5 106.866C417.507 105.832 415.873 105.314 413.598 105.314C412.274 105.314 410.888 105.48 409.44 105.811C408.033 106.142 406.564 106.7 405.033 107.487C404.33 107.818 403.73 107.921 403.234 107.797C402.737 107.673 402.344 107.404 402.055 106.99C401.765 106.535 401.6 106.059 401.558 105.563C401.558 105.025 401.682 104.508 401.93 104.011C402.22 103.515 402.696 103.142 403.358 102.894C405.178 102.025 406.978 101.405 408.757 101.032C410.536 100.66 412.212 100.474 413.784 100.474C416.556 100.474 418.831 100.908 420.61 101.777C422.431 102.646 423.775 103.97 424.644 105.749C425.513 107.528 425.948 109.824 425.948 112.637V128.587C425.948 129.58 425.699 130.366 425.203 130.945C424.706 131.483 423.982 131.752 423.031 131.752C422.121 131.752 421.397 131.483 420.859 130.945C420.321 130.366 420.052 129.58 420.052 128.587V124.553H420.61C420.279 126.084 419.659 127.408 418.749 128.525C417.88 129.6 416.783 130.428 415.459 131.007C414.136 131.586 412.625 131.876 410.929 131.876ZM437.808 131.752C436.815 131.752 436.049 131.483 435.511 130.945C434.974 130.366 434.705 129.58 434.705 128.587V103.763C434.705 102.729 434.974 101.943 435.511 101.405C436.049 100.867 436.794 100.598 437.746 100.598C438.739 100.598 439.483 100.867 439.98 101.405C440.518 101.943 440.787 102.729 440.787 103.763V108.852L440.104 107.487C440.931 105.294 442.214 103.577 443.952 102.336C445.689 101.094 447.779 100.474 450.22 100.474C452.743 100.474 454.791 101.074 456.364 102.274C457.936 103.473 459.011 105.314 459.591 107.797H458.722C459.508 105.521 460.852 103.742 462.756 102.46C464.659 101.136 466.872 100.474 469.396 100.474C471.713 100.474 473.616 100.929 475.105 101.839C476.595 102.708 477.712 104.053 478.457 105.873C479.201 107.652 479.574 109.907 479.574 112.637V128.587C479.574 129.58 479.284 130.366 478.705 130.945C478.167 131.483 477.402 131.752 476.409 131.752C475.416 131.752 474.65 131.483 474.113 130.945C473.575 130.366 473.306 129.58 473.306 128.587V112.948C473.306 110.383 472.851 108.5 471.94 107.3C471.072 106.101 469.624 105.501 467.596 105.501C465.321 105.501 463.521 106.287 462.197 107.859C460.873 109.431 460.211 111.603 460.211 114.375V128.587C460.211 129.58 459.942 130.366 459.404 130.945C458.867 131.483 458.101 131.752 457.108 131.752C456.115 131.752 455.329 131.483 454.75 130.945C454.212 130.366 453.943 129.58 453.943 128.587V112.948C453.943 110.383 453.509 108.5 452.64 107.3C451.771 106.101 450.323 105.501 448.296 105.501C446.02 105.501 444.221 106.287 442.897 107.859C441.614 109.431 440.973 111.603 440.973 114.375V128.587C440.973 130.697 439.918 131.752 437.808 131.752Z" fill="#514C4C"/>
<path d="M21.216 205.597C20.304 205.597 19.4933 205.318 18.784 204.761C18.0747 204.203 17.568 203.443 17.264 202.481L1.988 151.713C1.48133 150.041 1.50667 148.723 2.064 147.761C2.672 146.747 3.63467 146.241 4.952 146.241C5.81333 146.241 6.59867 146.494 7.308 147.001C8.01733 147.457 8.524 148.191 8.828 149.205L22.128 195.565H20.456L32.768 149.661C32.9707 148.901 33.4267 148.267 34.136 147.761C34.8453 147.254 35.656 147.001 36.568 147.001C37.3787 147.001 38.1387 147.229 38.848 147.685C39.608 148.09 40.0893 148.723 40.292 149.585L52.68 195.565H51.16L64.536 148.825C65.0427 147.102 66.3347 146.241 68.412 146.241C69.8307 146.241 70.7427 146.798 71.148 147.913C71.5533 148.977 71.5533 150.243 71.148 151.713L55.872 202.405C55.5173 203.367 54.9853 204.153 54.276 204.761C53.6173 205.318 52.832 205.597 51.92 205.597C50.9573 205.597 50.1213 205.293 49.412 204.685C48.7533 204.077 48.272 203.342 47.968 202.481L35.732 155.209H37.556L25.168 202.405C24.8133 203.367 24.2813 204.153 23.572 204.761C22.9133 205.318 22.128 205.597 21.216 205.597ZM246.837 205.901C242.632 205.901 238.882 205.014 235.589 203.241C232.346 201.417 229.788 198.934 227.913 195.793C226.089 192.601 225.177 188.953 225.177 184.849C225.177 180.694 226.038 177.046 227.761 173.905C229.534 170.713 231.966 168.23 235.057 166.457C238.148 164.633 241.694 163.721 245.697 163.721C249.649 163.721 253.044 164.607 255.881 166.381C258.718 168.103 260.872 170.51 262.341 173.601C263.861 176.641 264.621 180.162 264.621 184.165C264.621 185.127 264.292 185.938 263.633 186.597C262.974 187.205 262.138 187.509 261.125 187.509H230.497V181.429H260.897L257.781 183.557C257.73 181.023 257.224 178.769 256.261 176.793C255.298 174.766 253.93 173.17 252.157 172.005C250.384 170.839 248.23 170.257 245.697 170.257C242.809 170.257 240.326 170.89 238.249 172.157C236.222 173.423 234.677 175.171 233.613 177.401C232.549 179.579 232.017 182.062 232.017 184.849C232.017 187.635 232.65 190.118 233.917 192.297C235.184 194.475 236.932 196.198 239.161 197.465C241.39 198.731 243.949 199.365 246.837 199.365C248.408 199.365 250.004 199.086 251.625 198.529C253.297 197.921 254.64 197.237 255.653 196.477C256.413 195.919 257.224 195.641 258.085 195.641C258.997 195.59 259.782 195.843 260.441 196.401C261.302 197.161 261.758 197.997 261.809 198.909C261.86 199.821 261.454 200.606 260.593 201.265C258.87 202.633 256.717 203.747 254.133 204.609C251.6 205.47 249.168 205.901 246.837 205.901ZM418.35 205.673C417.236 205.673 416.298 205.318 415.538 204.609C414.829 203.849 414.474 202.911 414.474 201.797V183.101C414.474 180.213 413.942 177.857 412.878 176.033C411.814 174.209 410.37 172.866 408.546 172.005C406.773 171.093 404.721 170.637 402.39 170.637C400.262 170.637 398.337 171.067 396.614 171.929C394.892 172.79 393.524 173.955 392.51 175.425C391.497 176.843 390.99 178.49 390.99 180.365H386.202C386.202 177.173 386.962 174.335 388.482 171.853C390.053 169.319 392.181 167.318 394.866 165.849C397.552 164.379 400.566 163.645 403.91 163.645C407.406 163.645 410.522 164.405 413.258 165.925C416.045 167.394 418.224 169.573 419.794 172.461C421.416 175.349 422.226 178.895 422.226 183.101V201.797C422.226 202.911 421.846 203.849 421.086 204.609C420.377 205.318 419.465 205.673 418.35 205.673ZM387.114 205.673C386 205.673 385.062 205.318 384.302 204.609C383.593 203.849 383.238 202.911 383.238 201.797V167.901C383.238 166.735 383.593 165.798 384.302 165.089C385.062 164.379 386 164.025 387.114 164.025C388.28 164.025 389.217 164.379 389.926 165.089C390.636 165.798 390.99 166.735 390.99 167.901V201.797C390.99 202.911 390.636 203.849 389.926 204.609C389.217 205.318 388.28 205.673 387.114 205.673Z" fill="#F15E3D"/>
<path d="M89.6255 205.901C85.5215 205.901 81.8988 205.014 78.7575 203.241C75.6162 201.417 73.1335 198.934 71.3095 195.793C69.5362 192.601 68.6495 188.953 68.6495 184.849C68.6495 180.694 69.5362 177.046 71.3095 173.905C73.1335 170.713 75.6162 168.23 78.7575 166.457C81.8988 164.633 85.5215 163.721 89.6255 163.721C93.6788 163.721 97.2762 164.633 100.418 166.457C103.559 168.23 106.016 170.713 107.79 173.905C109.614 177.046 110.526 180.694 110.526 184.849C110.526 188.953 109.639 192.601 107.866 195.793C106.092 198.934 103.635 201.417 100.494 203.241C97.3522 205.014 93.7295 205.901 89.6255 205.901ZM89.6255 199.061C92.2602 199.061 94.5908 198.453 96.6175 197.237C98.6442 196.021 100.215 194.349 101.33 192.221C102.495 190.093 103.078 187.635 103.078 184.849C103.078 182.062 102.495 179.605 101.33 177.477C100.215 175.298 98.6442 173.601 96.6175 172.385C94.5908 171.169 92.2602 170.561 89.6255 170.561C86.9908 170.561 84.6602 171.169 82.6335 172.385C80.6068 173.601 79.0108 175.298 77.8455 177.477C76.6802 179.605 76.0975 182.062 76.0975 184.849C76.0975 187.635 76.6802 190.093 77.8455 192.221C79.0108 194.349 80.6068 196.021 82.6335 197.237C84.6602 198.453 86.9908 199.061 89.6255 199.061ZM453.891 205.901C449.939 205.901 446.367 204.989 443.175 203.165C440.034 201.29 437.526 198.757 435.651 195.565C433.827 192.373 432.915 188.775 432.915 184.773C432.915 180.77 433.751 177.198 435.423 174.057C437.146 170.865 439.476 168.357 442.415 166.533C445.354 164.658 448.672 163.721 452.371 163.721C455.36 163.721 458.122 164.354 460.655 165.621C463.188 166.837 465.316 168.509 467.039 170.637V150.117C467.039 148.951 467.394 148.014 468.103 147.305C468.863 146.595 469.8 146.241 470.915 146.241C472.08 146.241 473.018 146.595 473.727 147.305C474.436 148.014 474.791 148.951 474.791 150.117V184.773C474.791 188.775 473.854 192.373 471.979 195.565C470.155 198.757 467.672 201.29 464.531 203.165C461.39 204.989 457.843 205.901 453.891 205.901ZM453.891 199.061C456.475 199.061 458.78 198.453 460.807 197.237C462.834 195.97 464.43 194.247 465.595 192.069C466.76 189.89 467.343 187.458 467.343 184.773C467.343 182.037 466.76 179.605 465.595 177.477C464.43 175.349 462.834 173.677 460.807 172.461C458.78 171.194 456.475 170.561 453.891 170.561C451.358 170.561 449.052 171.194 446.975 172.461C444.948 173.677 443.327 175.349 442.111 177.477C440.946 179.605 440.363 182.037 440.363 184.773C440.363 187.458 440.946 189.89 442.111 192.069C443.327 194.247 444.948 195.97 446.975 197.237C449.052 198.453 451.358 199.061 453.891 199.061Z" fill="#F9BE3C"/>
<path d="M157.175 205.673C156.06 205.673 155.123 205.318 154.363 204.609C153.653 203.849 153.299 202.911 153.299 201.797V183.101C153.299 180.213 152.767 177.857 151.703 176.033C150.639 174.209 149.195 172.866 147.371 172.005C145.597 171.093 143.545 170.637 141.215 170.637C139.087 170.637 137.161 171.067 135.439 171.929C133.716 172.79 132.348 173.955 131.335 175.425C130.321 176.843 129.815 178.49 129.815 180.365H125.027C125.027 177.173 125.787 174.335 127.307 171.853C128.877 169.319 131.005 167.318 133.691 165.849C136.376 164.379 139.391 163.645 142.735 163.645C146.231 163.645 149.347 164.405 152.083 165.925C154.869 167.394 157.048 169.573 158.619 172.461C160.24 175.349 161.051 178.895 161.051 183.101V201.797C161.051 202.911 160.671 203.849 159.911 204.609C159.201 205.318 158.289 205.673 157.175 205.673ZM125.939 205.673C124.824 205.673 123.887 205.318 123.127 204.609C122.417 203.849 122.063 202.911 122.063 201.797V167.901C122.063 166.735 122.417 165.798 123.127 165.089C123.887 164.379 124.824 164.025 125.939 164.025C127.104 164.025 128.041 164.379 128.751 165.089C129.46 165.798 129.815 166.735 129.815 167.901V201.797C129.815 202.911 129.46 203.849 128.751 204.609C128.041 205.318 127.104 205.673 125.939 205.673ZM321.349 205.597C319.12 205.597 317.144 204.989 315.421 203.773C313.698 202.557 312.356 200.91 311.393 198.833C310.43 196.705 309.949 194.273 309.949 191.537V150.041C309.949 148.926 310.304 148.014 311.013 147.305C311.722 146.595 312.634 146.241 313.749 146.241C314.864 146.241 315.776 146.595 316.485 147.305C317.194 148.014 317.549 148.926 317.549 150.041V191.537C317.549 193.411 317.904 194.957 318.613 196.173C319.322 197.389 320.234 197.997 321.349 197.997H323.249C324.262 197.997 325.073 198.351 325.681 199.061C326.34 199.77 326.669 200.682 326.669 201.797C326.669 202.911 326.188 203.823 325.225 204.533C324.262 205.242 323.021 205.597 321.501 205.597H321.349Z" fill="#3AA176"/>
<path d="M192.715 205.901C188.763 205.901 185.191 204.989 181.999 203.165C178.858 201.29 176.35 198.757 174.475 195.565C172.651 192.373 171.739 188.775 171.739 184.773C171.739 180.77 172.575 177.198 174.247 174.057C175.97 170.865 178.301 168.357 181.239 166.533C184.178 164.658 187.497 163.721 191.195 163.721C194.185 163.721 196.946 164.354 199.479 165.621C202.013 166.837 204.141 168.509 205.863 170.637V150.117C205.863 148.951 206.218 148.014 206.927 147.305C207.687 146.595 208.625 146.241 209.739 146.241C210.905 146.241 211.842 146.595 212.551 147.305C213.261 148.014 213.615 148.951 213.615 150.117V184.773C213.615 188.775 212.678 192.373 210.803 195.565C208.979 198.757 206.497 201.29 203.355 203.165C200.214 204.989 196.667 205.901 192.715 205.901ZM192.715 199.061C195.299 199.061 197.605 198.453 199.631 197.237C201.658 195.97 203.254 194.247 204.419 192.069C205.585 189.89 206.167 187.458 206.167 184.773C206.167 182.037 205.585 179.605 204.419 177.477C203.254 175.349 201.658 173.677 199.631 172.461C197.605 171.194 195.299 170.561 192.715 170.561C190.182 170.561 187.877 171.194 185.799 172.461C183.773 173.677 182.151 175.349 180.935 177.477C179.77 179.605 179.187 182.037 179.187 184.773C179.187 187.458 179.77 189.89 180.935 192.069C182.151 194.247 183.773 195.97 185.799 197.237C187.877 198.453 190.182 199.061 192.715 199.061ZM349.281 205.901C345.583 205.901 342.264 204.989 339.325 203.165C336.387 201.29 334.056 198.782 332.333 195.641C330.661 192.449 329.825 188.851 329.825 184.849C329.825 180.846 330.737 177.249 332.561 174.057C334.436 170.865 336.944 168.357 340.085 166.533C343.277 164.658 346.849 163.721 350.801 163.721C354.753 163.721 358.3 164.658 361.441 166.533C364.583 168.357 367.065 170.865 368.889 174.057C370.764 177.249 371.701 180.846 371.701 184.849H368.737C368.737 188.851 367.876 192.449 366.153 195.641C364.481 198.782 362.176 201.29 359.237 203.165C356.299 204.989 352.98 205.901 349.281 205.901ZM350.801 199.061C353.385 199.061 355.691 198.453 357.717 197.237C359.744 195.97 361.34 194.273 362.505 192.145C363.671 189.966 364.253 187.534 364.253 184.849C364.253 182.113 363.671 179.681 362.505 177.553C361.34 175.374 359.744 173.677 357.717 172.461C355.691 171.194 353.385 170.561 350.801 170.561C348.268 170.561 345.963 171.194 343.885 172.461C341.859 173.677 340.237 175.374 339.021 177.553C337.856 179.681 337.273 182.113 337.273 184.849C337.273 187.534 337.856 189.966 339.021 192.145C340.237 194.273 341.859 195.97 343.885 197.237C345.963 198.453 348.268 199.061 350.801 199.061ZM367.825 205.673C366.711 205.673 365.773 205.318 365.013 204.609C364.304 203.849 363.949 202.911 363.949 201.797V190.169L365.393 182.113L371.701 184.849V201.797C371.701 202.911 371.321 203.849 370.561 204.609C369.852 205.318 368.94 205.673 367.825 205.673Z" fill="#9DC5E9"/>
<path d="M278.232 179.605C278.232 176.565 278.967 173.854 280.436 171.473C281.956 169.041 283.983 167.115 286.516 165.697C289.049 164.278 291.836 163.569 294.876 163.569C297.916 163.569 300.171 164.075 301.64 165.089C303.16 166.051 303.743 167.217 303.388 168.585C303.236 169.294 302.932 169.851 302.476 170.257C302.071 170.611 301.589 170.839 301.032 170.941C300.475 171.042 299.867 171.017 299.208 170.865C295.965 170.206 293.052 170.155 290.468 170.713C287.884 171.27 285.832 172.309 284.312 173.829C282.843 175.349 282.108 177.274 282.108 179.605H278.232ZM278.308 205.597C277.092 205.597 276.155 205.293 275.496 204.685C274.837 204.026 274.508 203.063 274.508 201.797V167.825C274.508 166.609 274.837 165.671 275.496 165.013C276.155 164.354 277.092 164.025 278.308 164.025C279.575 164.025 280.512 164.354 281.12 165.013C281.779 165.621 282.108 166.558 282.108 167.825V201.797C282.108 203.013 281.779 203.95 281.12 204.609C280.512 205.267 279.575 205.597 278.308 205.597Z" fill="#FECB01"/>
<g clip-path="url(#clip0_32_1943)">
<path d="M182.137 65.9347L176 65.7019C176.7 47.3937 183.475 30.7722 195.078 18.9044C207.171 6.53833 223.395 0 242.002 0C260.609 0 276.833 6.53425 288.922 18.8962C300.525 30.76 307.3 47.3815 308.004 65.7019L301.867 65.9347C300.52 30.7191 275.9 6.12586 242.002 6.12586C208.104 6.12586 183.488 30.7191 182.137 65.9347Z" fill="#9DC5E9"/>
<path d="M186.795 65.9469L180.659 65.6896C182.165 29.7512 207.388 4.64746 242.002 4.64746C276.616 4.64746 301.838 29.7471 303.345 65.6896L297.208 65.9469C295.849 33.4635 273.148 10.7774 242.002 10.7774C210.855 10.7774 188.155 33.4635 186.795 65.9469Z" fill="#F15E3D"/>
<path d="M292.55 65.9551C291.211 36.1875 270.422 15.3964 242.002 15.3964C213.582 15.3964 192.793 36.1875 191.455 65.9551L185.318 65.6815C186.812 32.4671 210.123 9.27051 242.002 9.27051C273.881 9.27051 297.192 32.4671 298.686 65.6815L292.55 65.9551Z" fill="#F9BE3C"/>
<path d="M287.891 65.9714C286.519 38.499 268.076 20.0438 241.998 20.0438C215.92 20.0438 197.481 38.5031 196.105 65.9714L189.973 65.6651C190.693 51.2122 196.048 38.1437 205.046 28.861C214.524 19.0841 227.301 13.918 241.998 13.918C256.695 13.918 269.476 19.0841 278.95 28.861C287.948 38.1437 293.299 51.2163 294.024 65.6692L287.891 65.9755V65.9714Z" fill="#3AA176"/>
<path d="M283.236 65.9834C281.889 41.3044 265.317 24.7196 242.002 24.7196C218.687 24.7196 202.115 41.3003 200.768 65.9834L194.635 65.6526C195.352 52.4861 200.228 40.6019 208.362 32.1891C216.963 23.2943 228.594 18.5938 242.002 18.5938C255.409 18.5938 267.032 23.2943 275.633 32.185C283.772 40.5978 288.648 52.482 289.368 65.6526L283.236 65.9834Z" fill="#9DC5E9"/>
<path d="M278.577 66.0003C277.263 44.0698 262.561 29.335 241.998 29.335C221.434 29.335 206.737 44.0698 205.419 66.0003L199.29 65.6328C200.002 53.7445 204.412 43.0324 211.703 35.4731C219.44 27.4483 229.917 23.2051 241.998 23.2051C254.079 23.2051 264.527 27.4483 272.276 35.4772C279.58 43.0447 283.993 53.7527 284.705 65.6287L278.577 65.9962V66.0003Z" fill="#F15E3D"/>
</g>
<defs>
<clipPath id="clip0_32_1943">
<rect width="132" height="66" fill="white" transform="translate(176)"/>
</clipPath>
</defs>
</svg>
